<?xml version="1.0" encoding="utf-8"?>
<!-- Generator: Adobe Illustrator 16.0.0, SVG Export Plug-In . SVG Version: 6.00 Build 0)  -->
<!DOCTYPE svg PUBLIC "-//W3C//DTD SVG 1.1//EN" "http://www.w3.org/Graphics/SVG/1.1/DTD/svg11.dtd">
<svg version="1.1" id="Design" xmlns="http://www.w3.org/2000/svg" xmlns:xlink="http://www.w3.org/1999/xlink" x="0px" y="0px"
	 width="2000px" height="350px" viewBox="0 0 2000 350" enable-background="new 0 0 2000 350" xml:space="preserve">
<text transform="matrix(1 0 0 1 243.9297 323.1523)" fill="#53B4BF" font-family="'Noteworthy-Light'" font-size="329.0997">oostC Moodle</text>
<path id="B_1_" fill="#0064AE" d="M221.971,200.353c-13.358-26.08-39.938-44.047-67.577-52.402
	c8.331-11.176,14.393-23.965,17.124-38.056c6.768-34.905-10.9-66.976-39.191-86.697C96.399-1.846,50.452-1.544,8.626,1.958
	c-11.451,0.959-11.552,18.95,0,17.984c8.792-0.737,18.342-1.29,28.205-1.397c0,43.134,0,86.267,0,129.401
	c-12.209,3.509-27.104,8.306-32.501,20.49c-5.717,12.905,2.387,25.406,15.227,29.398c5.513,1.716,11.313,2.728,17.274,3.156
	c0,42.883,0,85.77,0,128.656c-6.616-0.73-13.084-1.546-19.316-2.386c-11.316-1.521-16.214,15.804-4.78,17.343
	c9.724,1.31,19.851,2.521,30.186,3.473c1.28,0.38,2.637,0.494,3.973,0.357c62.48,5.274,131.864-0.203,168.551-57.159
	C232.865,264.229,236.831,229.368,221.971,200.353z M152.205,75.887c8.562,26.397-0.465,49.522-17.351,67.407
	c-26.123-4.848-53.995-4.862-80.039,0.249c0-41.551,0-83.104,0-124.654C96.155,21.078,138.518,33.68,152.205,75.887z
	 M54.814,164.512c0-0.863,0-1.729,0-2.592c3.244-0.691,5.821-1.163,7.111-1.382c17.584-3.01,36.3-3.578,54.549-1.691
	c-16.541,11.298-36.045,18.925-53.735,21.897c-1.684,0.283-4.523,0.764-7.925,1.24C54.814,176.16,54.814,170.336,54.814,164.512z
	 M36.831,166.754c0,5.551,0,11.103,0,16.653c-5.538-0.052-10.333-0.802-12.494-2.911C18.724,175.006,26.709,170.257,36.831,166.754z
	 M199.917,282.198c-31.262,48.059-91.137,53.236-145.102,49.142c0-43.565,0-87.132,0-130.699c20.749-2.091,41.872-9.6,58.417-18.255
	c9.96-5.213,19.314-11.751,27.561-19.402c1.689,0.403,3.401,0.758,5.067,1.207C198.827,178.49,232.71,231.782,199.917,282.198z"/>
</svg>
